<svg width="206" height="40" viewBox="0 0 206 40" fill="none" xmlns="http://www.w3.org/2000/svg">
<path d="M2.88689 11.3555C-2.34121 21.5675 4.52503 28.9653 8.61166 31.3877C9.21289 31.8175 9.52657 32.4873 9.60499 32.8159C9.68342 33.1445 9.93175 33.7006 10.7421 33.5616C11.3904 33.4504 11.7006 33.9197 11.7747 34.1682C11.8313 34.3578 12.0099 34.7774 12.2713 34.9392C12.5327 35.101 12.8072 34.8718 12.9118 34.737C13.1627 34.3932 13.5479 34.3578 13.7091 34.3831C14.4018 34.5348 14.6109 35.7986 14.6893 36.7086C14.7677 37.6186 15.4082 37.8966 15.8003 37.8082C16.1924 37.7197 16.5322 37.4164 16.5976 35.5711C16.6499 34.0949 17.4994 34.2314 17.9177 34.4842C18.3988 35.1254 18.0132 37.0425 17.9191 37.5103L17.9177 37.5175C17.8262 37.9725 17.6955 40.121 19.5776 39.9946C21.4597 39.8683 20.9761 37.5554 20.8846 37.0625C20.8114 36.6682 20.767 35.9039 20.7539 35.5711C20.7408 35.331 20.6624 33.3973 22.453 33.2077C23.8855 33.056 24.5399 32.2598 24.6881 31.8806C17.9856 34.5904 11.8052 31.9312 9.55271 30.2629C1.65829 24.2671 3.26209 16.1329 5.13497 13.2892C9.69649 6.36323 17.6301 6.78031 20.6886 10.1295C23.747 13.4788 22.0502 17.7998 19.9828 18.0034C18.5712 18.1424 16.8198 17.0934 16.6891 14.7426C16.5845 12.862 15.1206 12.1391 14.4148 11.9116C10.5983 10.6814 7.48761 15.3619 7.34384 19.1282C7.34384 26.307 13.8615 29.1254 17.0028 29.6436C26.1833 30.867 31.0053 23.8677 32.2688 20.2152C34.8515 12.8342 29.9554 6.38851 27.4589 4.46745C21.9364 0.217648 15.9179 0.80224 13.3431 1.45945C18.3307 1.02468 22.6535 3.10669 24.1914 4.1894C30.5592 8.71908 30.4956 15.4462 29.6678 18.2436C28.6019 21.8456 25.2109 26.623 19.1332 26.623C13.0555 26.623 9.67035 21.4664 11.5917 17.6622C13.1287 14.6188 14.1491 16.3941 14.4671 17.6622C15.7872 22.2753 19.7475 22.5355 21.5904 21.8456C25.9925 20.1975 26.3088 15.2524 25.9167 12.9859C24.9338 7.87988 20.2442 5.60914 18.0222 5.11203C10.2219 3.09996 4.38804 8.42333 2.88689 11.3555Z" fill="#FF3277"/>
<circle cx="17" cy="17" r="16" fill="white"/>
<path d="M29.0277 4.97956C25.8162 1.76878 21.5458 0 17.0039 0C12.4625 0 8.19209 1.76823 4.98063 4.97956C1.76916 8.19035 0 12.4599 0 17.0003C0 20.4874 1.04306 23.8144 2.98223 26.625C3.45563 27.3111 5.56124 29.7665 7.37771 31.0189C10.1888 32.9572 13.5166 34 17.0044 34C21.5463 34 25.8162 32.2318 29.0282 29.0204C35.6573 22.3927 35.6574 11.6078 29.0277 4.97956ZM27.3369 27.3312C24.9843 29.6839 21.9702 31.1352 18.7133 31.5119C18.6968 31.5119 18.6793 31.5113 18.6623 31.5113C11.5719 31.4768 5.81365 25.6994 5.81365 18.6024C5.81365 13.0394 10.3407 8.51385 15.9043 8.51385C20.2241 8.51385 23.7378 12.0273 23.7378 16.3462C23.7378 19.6693 21.0336 22.3724 17.7102 22.3724C15.1832 22.3724 13.1272 20.3169 13.1272 17.7904C13.1272 15.9009 14.6649 14.3635 16.5547 14.3635C17.9351 14.3635 19.0577 15.4859 19.0577 16.8659C19.0577 17.5261 19.5929 18.0612 20.2532 18.0612C20.9129 18.0612 21.4487 17.5261 21.4487 16.8659C21.4487 14.1684 19.2529 11.9736 16.5547 11.9736C13.3466 11.9736 10.7367 14.5829 10.7367 17.7904C10.7367 21.635 13.8654 24.7624 17.7108 24.7624C22.353 24.7624 26.1293 20.9869 26.1293 16.3456C26.1293 10.7092 21.543 6.1233 15.9049 6.1233C9.02237 6.1233 3.42315 11.7213 3.42315 18.6024C3.42315 20.9951 3.9754 23.2612 4.95924 25.2805C3.28934 22.8631 2.39049 20.0011 2.39049 17.0003C2.39049 13.0981 3.91014 9.42893 6.67081 6.66939C9.43149 3.90985 13.1009 2.38999 17.0039 2.38999C19.7673 2.38999 22.4123 3.15266 24.7018 4.57602C25.6467 5.16324 26.5308 5.86286 27.3369 6.66885C33.0349 12.3661 33.0349 21.635 27.3369 27.3312Z" fill="#FF3277"/>
<path d="M60.5947 15.9418C60.1331 11.4176 56.7631 8.8324 52.1927 8.8324C47.1515 8.8324 43.2275 12.2948 43.2275 18.5455C43.2275 24.7685 47.0592 28.2585 52.1927 28.2585C57.3817 28.2585 60.2531 24.7315 60.5947 21.38L55.9782 21.3523C55.6551 23.1712 54.2886 24.2514 52.2851 24.2514C49.589 24.2514 47.8902 22.3033 47.8902 18.5455C47.8902 14.9354 49.5521 12.8395 52.3128 12.8395C54.3902 12.8395 55.7474 14.049 55.9782 15.9418H60.5947Z" fill="#1B1349"/>
<path d="M69.83 28.2678C74.2895 28.2678 76.9948 25.3225 76.9948 20.9553C76.9948 16.5788 74.2895 13.6335 69.83 13.6335C65.3705 13.6335 62.6652 16.5788 62.6652 20.9553C62.6652 25.3225 65.3705 28.2678 69.83 28.2678ZM69.8577 24.8608C68.1865 24.8608 67.2632 23.2727 67.2632 20.9276C67.2632 18.5732 68.1865 16.9759 69.8577 16.9759C71.4735 16.9759 72.3968 18.5732 72.3968 20.9276C72.3968 23.2727 71.4735 24.8608 69.8577 24.8608Z" fill="#1B1349"/>
<path d="M84.4873 28.2031C86.6294 28.2031 87.9035 27.0121 88.4759 25.701H88.6144V28H93.0832V9.09092H88.5683V16.2465H88.4759C87.9404 14.9446 86.7032 13.6335 84.4688 13.6335C81.5051 13.6335 78.8183 15.9141 78.8183 20.9183C78.8183 25.7472 81.3573 28.2031 84.4873 28.2031ZM86.0569 24.6854C84.3857 24.6854 83.4532 23.1989 83.4532 20.9091C83.4532 18.6286 84.3765 17.1605 86.0569 17.1605C87.7096 17.1605 88.6698 18.5916 88.6698 20.9091C88.6698 23.2081 87.7004 24.6854 86.0569 24.6854Z" fill="#1B1349"/>
<path d="M102.568 28.2678C106.289 28.2678 108.735 26.4673 109.252 23.679L105.107 23.559C104.756 24.5007 103.833 25.0085 102.651 25.0085C100.915 25.0085 99.844 23.8544 99.844 22.1186V21.9986H109.299V20.8722C109.299 16.2003 106.455 13.6335 102.429 13.6335C98.1452 13.6335 95.3937 16.5696 95.3937 20.9645C95.3937 25.5071 98.1082 28.2678 102.568 28.2678ZM99.844 19.3764C99.9086 17.9638 101.026 16.8928 102.522 16.8928C104.008 16.8928 105.079 17.9269 105.098 19.3764H99.844Z" fill="#1B1349"/>
<path d="M123.986 18.1484C123.746 15.3416 121.447 13.6335 117.606 13.6335C113.765 13.6335 111.318 15.3047 111.337 18.1484C111.318 20.3274 112.712 21.7308 115.547 22.2571L118.021 22.728C119.194 22.9588 119.729 23.3281 119.748 23.956C119.729 24.6669 118.935 25.1378 117.781 25.1378C116.498 25.1378 115.63 24.5838 115.436 23.5497L110.977 23.6605C111.3 26.4673 113.71 28.2678 117.763 28.2678C121.558 28.2678 124.318 26.375 124.337 23.4574C124.318 21.3892 122.952 20.1612 120.127 19.6165L117.394 19.0994C116.193 18.8594 115.805 18.4347 115.815 17.8899C115.805 17.1698 116.646 16.7266 117.689 16.7266C118.88 16.7266 119.711 17.3636 119.84 18.2592L123.986 18.1484Z" fill="#1B1349"/>
<path d="M133.18 28.2678C137.168 28.2678 139.643 25.9503 139.763 22.4418H135.543C135.377 23.9467 134.472 24.7685 133.235 24.7685C131.647 24.7685 130.613 23.4297 130.613 20.9091C130.613 18.407 131.656 17.0682 133.235 17.0682C134.528 17.0682 135.368 17.9453 135.543 19.3949H139.763C139.661 15.9048 137.113 13.6335 133.17 13.6335C128.711 13.6335 126.015 16.6065 126.015 20.9553C126.015 25.2855 128.692 28.2678 133.18 28.2678Z" fill="#1B1349"/>
<path d="M146.071 28.2401C148.047 28.2401 149.413 27.4737 150.189 26.0242H150.3V28H154.547V18.3608C154.547 15.3601 151.879 13.6335 148.269 13.6335C144.455 13.6335 142.295 15.554 141.935 18.1392L146.099 18.2869C146.293 17.3821 147.041 16.8281 148.232 16.8281C149.34 16.8281 150.041 17.3636 150.041 18.3146V18.3608C150.041 19.2287 149.1 19.4134 146.68 19.6257C143.809 19.8658 141.408 20.9276 141.408 24.0668C141.408 26.8736 143.357 28.2401 146.071 28.2401ZM147.465 25.2855C146.422 25.2855 145.683 24.7869 145.683 23.8452C145.683 22.9311 146.404 22.3771 147.687 22.1833C148.527 22.0632 149.561 21.8786 150.069 21.6108V22.9588C150.069 24.3438 148.906 25.2855 147.465 25.2855Z" fill="#1B1349"/>
<path d="M161.823 19.9119C161.832 18.2962 162.774 17.3359 164.205 17.3359C165.636 17.3359 166.485 18.2777 166.476 19.8473V28H170.991V18.9609C171 15.7663 169.052 13.6335 166.07 13.6335C163.974 13.6335 162.386 14.6953 161.758 16.4219H161.601V13.8182H157.308V28H161.823V19.9119Z" fill="#1B1349"/>
<path d="M178.966 28.2031C181.108 28.2031 182.382 27.0121 182.954 25.701H183.093V28H187.562V9.09092H183.047V16.2465H182.954C182.419 14.9446 181.182 13.6335 178.947 13.6335C175.984 13.6335 173.297 15.9141 173.297 20.9183C173.297 25.7472 175.836 28.2031 178.966 28.2031ZM180.535 24.6854C178.864 24.6854 177.932 23.1989 177.932 20.9091C177.932 18.6286 178.855 17.1605 180.535 17.1605C182.188 17.1605 183.148 18.5916 183.148 20.9091C183.148 23.2081 182.179 24.6854 180.535 24.6854Z" fill="#1B1349"/>
<path d="M193.178 33.2997C196.428 33.2997 198.043 31.6563 198.828 29.3573L204.174 13.8274L199.419 13.8182L196.769 23.9375H196.622L194.009 13.8182H189.281L194.323 28.5171L194.147 28.9418C193.658 29.9574 192.734 30.0036 191.405 29.5696L190.408 32.8473C191.091 33.1151 192.097 33.2997 193.178 33.2997Z" fill="#1B1349"/>
</svg>
