<svg width="34" height="40" viewBox="0 0 34 40" fill="none" xmlns="http://www.w3.org/2000/svg">
<path d="M2.88689 11.3555C-2.34121 21.5675 4.52503 28.9653 8.61166 31.3877C9.21289 31.8175 9.52657 32.4873 9.60499 32.8159C9.68342 33.1445 9.93175 33.7006 10.7421 33.5616C11.3904 33.4504 11.7006 33.9197 11.7747 34.1682C11.8313 34.3578 12.0099 34.7774 12.2713 34.9392C12.5327 35.101 12.8072 34.8718 12.9118 34.737C13.1627 34.3932 13.5479 34.3578 13.7091 34.3831C14.4018 34.5348 14.6109 35.7986 14.6893 36.7086C14.7677 37.6186 15.4082 37.8966 15.8003 37.8082C16.1924 37.7197 16.5322 37.4164 16.5976 35.5711C16.6499 34.0949 17.4994 34.2314 17.9177 34.4842C18.3988 35.1254 18.0132 37.0425 17.9191 37.5103L17.9177 37.5175C17.8262 37.9725 17.6955 40.121 19.5776 39.9946C21.4597 39.8683 20.9761 37.5554 20.8846 37.0625C20.8114 36.6682 20.767 35.9039 20.7539 35.5711C20.7408 35.331 20.6624 33.3973 22.453 33.2077C23.8855 33.056 24.5399 32.2598 24.6881 31.8806C17.9856 34.5904 11.8052 31.9312 9.55271 30.2629C1.65829 24.2671 3.26209 16.1329 5.13497 13.2892C9.69649 6.36323 17.6301 6.78031 20.6886 10.1295C23.747 13.4788 22.0502 17.7998 19.9828 18.0034C18.5712 18.1424 16.8198 17.0934 16.6891 14.7426C16.5845 12.862 15.1206 12.1391 14.4148 11.9116C10.5983 10.6814 7.48761 15.3619 7.34384 19.1282C7.34384 26.307 13.8615 29.1254 17.0028 29.6436C26.1833 30.867 31.0053 23.8677 32.2688 20.2152C34.8515 12.8342 29.9554 6.38851 27.4589 4.46745C21.9364 0.217648 15.9179 0.80224 13.3431 1.45945C18.3307 1.02468 22.6535 3.10669 24.1914 4.1894C30.5592 8.71908 30.4956 15.4462 29.6678 18.2436C28.6019 21.8456 25.2109 26.623 19.1332 26.623C13.0555 26.623 9.67035 21.4664 11.5917 17.6622C13.1287 14.6188 14.1491 16.3941 14.4671 17.6622C15.7872 22.2753 19.7475 22.5355 21.5904 21.8456C25.9925 20.1975 26.3088 15.2524 25.9167 12.9859C24.9338 7.87988 20.2442 5.60914 18.0222 5.11203C10.2219 3.09996 4.38804 8.42333 2.88689 11.3555Z" fill="#FF3277"/>
<circle cx="17" cy="17" r="16" fill="white"/>
<path d="M29.0277 4.97956C25.8162 1.76878 21.5458 0 17.0039 0C12.4625 0 8.19209 1.76823 4.98063 4.97956C1.76916 8.19035 0 12.4599 0 17.0003C0 20.4874 1.04306 23.8144 2.98223 26.625C3.45563 27.3111 5.56124 29.7665 7.37771 31.0189C10.1888 32.9572 13.5166 34 17.0044 34C21.5463 34 25.8162 32.2318 29.0282 29.0204C35.6573 22.3927 35.6574 11.6078 29.0277 4.97956ZM27.3369 27.3312C24.9843 29.6839 21.9702 31.1352 18.7133 31.5119C18.6968 31.5119 18.6793 31.5113 18.6623 31.5113C11.5719 31.4768 5.81365 25.6994 5.81365 18.6024C5.81365 13.0394 10.3407 8.51385 15.9043 8.51385C20.2241 8.51385 23.7378 12.0273 23.7378 16.3462C23.7378 19.6693 21.0336 22.3724 17.7102 22.3724C15.1832 22.3724 13.1272 20.3169 13.1272 17.7904C13.1272 15.9009 14.6649 14.3635 16.5547 14.3635C17.9351 14.3635 19.0577 15.4859 19.0577 16.8659C19.0577 17.5261 19.5929 18.0612 20.2532 18.0612C20.9129 18.0612 21.4487 17.5261 21.4487 16.8659C21.4487 14.1684 19.2529 11.9736 16.5547 11.9736C13.3466 11.9736 10.7367 14.5829 10.7367 17.7904C10.7367 21.635 13.8654 24.7624 17.7108 24.7624C22.353 24.7624 26.1293 20.9869 26.1293 16.3456C26.1293 10.7092 21.543 6.1233 15.9049 6.1233C9.02237 6.1233 3.42315 11.7213 3.42315 18.6024C3.42315 20.9951 3.9754 23.2612 4.95924 25.2805C3.28934 22.8631 2.39049 20.0011 2.39049 17.0003C2.39049 13.0981 3.91014 9.42893 6.67081 6.66939C9.43149 3.90985 13.1009 2.38999 17.0039 2.38999C19.7673 2.38999 22.4123 3.15266 24.7018 4.57602C25.6467 5.16324 26.5308 5.86286 27.3369 6.66885C33.0349 12.3661 33.0349 21.635 27.3369 27.3312Z" fill="#FF3277"/>
</svg>
